<svg width="192" height="224" viewBox="0 0 192 224" fill="none" xmlns="http://www.w3.org/2000/svg">
<path d="M173.439 130.546L138.401 97.2935C133.523 92.6642 127.044 90.1168 120.149 90.1168C113.254 90.1168 106.769 92.6643 101.898 97.2935L66.8591 130.546C65.299 132.027 64.4338 133.999 64.4338 136.1C64.4338 138.195 65.2922 140.167 66.8591 141.648L68.2761 142.999C71.4033 145.96 76.8467 145.96 79.9737 142.999L86.2345 137.057V168.292C86.2345 172.094 89.4911 175.191 93.5038 175.191H146.794C150.8 175.191 154.063 172.101 154.063 168.292V137.064L160.324 143.006C161.891 144.486 163.962 145.301 166.17 145.301C168.377 145.301 170.455 144.486 172.015 142.999L173.432 141.654C174.992 140.174 175.857 138.202 175.857 136.1C175.857 134.006 174.999 132.034 173.432 130.553L173.439 130.546ZM149.213 168.279C149.213 169.547 148.129 170.581 146.787 170.581H93.497C92.1617 170.581 91.0717 169.547 91.0717 168.279V132.448L115.006 109.741C117.751 107.135 122.541 107.135 125.279 109.741L149.213 132.455L149.213 168.279ZM170.012 138.388L168.595 139.733C167.301 140.962 165.046 140.962 163.751 139.733L128.713 106.481C126.431 104.308 123.385 103.112 120.149 103.112C116.913 103.112 113.868 104.308 111.586 106.481L86.9435 129.86L76.5472 139.727C75.2528 140.955 72.9977 140.955 71.7034 139.727L70.2864 138.375C69.6392 137.761 69.2849 136.946 69.2849 136.08C69.2849 135.214 69.6392 134.393 70.2864 133.778L105.325 100.526C109.283 96.7692 114.549 94.6937 120.149 94.6937C125.749 94.6937 131.016 96.7627 134.974 100.526L170.013 133.778C170.66 134.393 171.014 135.207 171.014 136.074C171.014 136.94 170.66 137.761 170.013 138.375L170.012 138.388Z" fill="#E6001F"/>
<path d="M108.037 136.094C108.037 142.431 113.473 147.59 120.15 147.59C126.826 147.59 132.263 142.431 132.263 136.094C132.263 129.758 126.826 124.599 120.15 124.599C113.473 124.599 108.037 129.758 108.037 136.094ZM127.412 136.094C127.412 139.896 124.155 142.993 120.142 142.993C116.136 142.993 112.873 139.903 112.873 136.094C112.873 132.293 116.13 129.196 120.142 129.196C124.148 129.196 127.412 132.286 127.412 136.094Z" fill="#E6001F"/>
<path d="M144.369 87.8159V97.01C144.369 98.2772 145.452 99.3117 146.794 99.3117C148.137 99.3117 149.22 98.2837 149.22 97.01V87.8159H158.908V110.808C158.908 112.075 159.998 113.11 161.333 113.11C161.524 113.11 161.694 113.084 161.864 113.039C162.954 112.806 163.751 111.888 163.751 110.808V87.8158C167.757 87.8158 171.021 84.7253 171.021 80.917V76.3201C171.021 72.5183 167.764 69.4213 163.751 69.4213H144.376C140.371 69.4213 137.107 72.5118 137.107 76.3201V80.917C137.107 84.7188 140.364 87.8158 144.376 87.8158L144.369 87.8159ZM141.951 76.3202C141.951 75.0529 143.034 74.0185 144.376 74.0185H163.751C165.086 74.0185 166.176 75.053 166.176 76.3202V80.9171C166.176 82.1844 165.093 83.2188 163.751 83.2188H144.376C143.041 83.2188 141.951 82.1843 141.951 80.9171V76.3202Z" fill="#E6001F"/>
<path d="M109.537 87.311C109.101 87.4468 108.665 87.6085 108.229 87.796C108.712 87.7701 109.175 87.5891 109.537 87.311Z" fill="#E6001F"/>
<path d="M81.3924 147.797C76.3306 150.926 69.2589 150.415 64.8509 146.258L63.4203 144.9C60.9472 142.553 59.5915 139.43 59.5915 136.094C59.5915 132.758 60.9472 129.635 63.4407 127.288L98.4652 94.0484C101.299 91.3587 104.644 89.2445 108.228 87.7962C108.153 87.8221 108.105 87.8221 108.037 87.8221H93.5056C92.1703 87.8221 91.0803 86.7876 91.0803 85.5204V71.7294C91.0803 70.4621 92.1703 69.4277 93.5056 69.4277H108.037C109.373 69.4277 110.463 70.4622 110.463 71.7294V85.5204C110.463 86.2575 110.101 86.8975 109.543 87.3113C112.888 86.141 116.471 85.5204 120.15 85.5204C120.975 85.5204 121.772 85.5462 122.576 85.6109L122.569 41.8395H124.994C128.993 41.8395 132.263 38.736 132.263 34.9407V30.3438C132.263 26.5484 128.993 23.4449 124.994 23.4449L47.4787 23.4514C43.4795 23.4514 40.2094 26.5549 40.2094 30.3502V34.9472C40.2094 38.7425 43.4795 41.846 47.4787 41.846H49.904V83.2256H28.1031C26.7678 83.2256 25.6778 84.2601 25.6778 85.5273V97.0231H23.2525C19.2533 97.0231 15.9832 100.127 15.9832 103.922V172.89C15.9832 174.157 17.0732 175.192 18.4085 175.192H83.8112C82.2852 173.285 81.3859 170.892 81.3859 168.293V147.81L81.3924 147.797ZM91.0802 48.737C91.0802 47.4697 92.1703 46.4353 93.5056 46.4353H108.037C109.372 46.4353 110.462 47.4698 110.462 48.737V62.528C110.462 63.7952 109.372 64.8297 108.037 64.8297H93.5056C92.1703 64.8297 91.0802 63.7952 91.0802 62.528V48.737ZM62.01 48.737C62.01 47.4697 63.1001 46.4353 64.4353 46.4353H78.967C80.3023 46.4353 81.3923 47.4698 81.3923 48.737V62.528C81.3923 63.7952 80.3022 64.8297 78.967 64.8297H64.4353C63.1 64.8297 62.01 63.7952 62.01 62.528V48.737ZM62.01 71.7226C62.01 70.4553 63.1001 69.4208 64.4353 69.4208H78.967C80.3023 69.4208 81.3923 70.4553 81.3923 71.7226V85.5136C81.3923 86.7808 80.3022 87.8153 78.967 87.8153H64.4353C63.1 87.8153 62.01 86.7808 62.01 85.5136V71.7226ZM62.01 94.7147C62.01 93.4475 63.1001 92.413 64.4353 92.413H78.967C80.3023 92.413 81.3923 93.4475 81.3923 94.7147V108.506C81.3923 109.773 80.3022 110.807 78.967 110.807H64.4353C63.1 110.807 62.01 109.773 62.01 108.506V94.7147ZM49.8969 152.188H37.7838C36.4485 152.188 35.3585 153.222 35.3585 154.489C35.3585 155.757 36.4485 156.791 37.7838 156.791H49.8969V161.388H37.7838C33.7846 161.388 30.5145 158.285 30.5145 154.489C30.5145 150.694 33.7846 147.59 37.7838 147.59H49.8969V152.188ZM49.8969 133.794H37.7838C36.4485 133.794 35.3585 134.828 35.3585 136.095C35.3585 137.363 36.4485 138.397 37.7838 138.397H49.8969V142.994H37.7838C33.7846 142.994 30.5145 139.891 30.5145 136.095C30.5145 132.3 33.7846 129.196 37.7838 129.196H49.8969V133.794ZM49.8969 115.406H37.7838C36.4485 115.406 35.3585 116.441 35.3585 117.708C35.3585 118.975 36.4485 120.01 37.7838 120.01H49.8969V124.607H37.7838C33.7846 124.607 30.5145 121.503 30.5145 117.708C30.5145 113.912 33.7846 110.809 37.7838 110.809H49.8969V115.406ZM49.8969 97.0121H30.522V87.8181H49.8969V97.0121Z" fill="#E6001F"/>
<path d="M66.8538 51.0327H76.5416V60.2268H66.8538V51.0327Z" fill="#E6001F"/>
<path d="M95.9241 51.0327H105.612V60.2268H95.9241V51.0327Z" fill="#E6001F"/>
<path d="M66.8538 74.0249H76.5416V83.219H66.8538V74.0249Z" fill="#E6001F"/>
<path d="M95.9241 74.0249H105.612V83.219H95.9241V74.0249Z" fill="#E6001F"/>
<path d="M66.8538 97.0089H76.5416V106.203H66.8538V97.0089Z" fill="#E6001F"/>
</svg>
