<svg width="210" height="258" viewBox="0 0 210 258" fill="none" xmlns="http://www.w3.org/2000/svg">
<path d="M71.3007 73.9926C68.4669 71.1513 64.0149 70.7038 60.6665 72.9336C57.3256 75.1634 56.0206 79.444 57.5568 83.1652C59.093 86.879 63.038 88.9895 66.9829 88.2063C70.9204 87.4233 73.7617 83.9705 73.7692 79.9511C73.7692 77.7138 72.8892 75.5735 71.3007 73.9926ZM135.591 112.218C129.29 118.572 129.29 128.833 135.591 135.187L147.076 146.671L158.56 135.187C161.364 132.382 163.042 128.646 163.281 124.687C165.533 124.649 167.74 124.112 169.754 123.098C172.192 121.853 174.25 119.966 175.69 117.632C178.471 113.075 178.583 107.378 175.98 102.717C173.37 98.0637 168.456 95.1703 163.116 95.1554H34.1039C33.5744 95.1404 33.0598 95.3418 32.6721 95.7072C32.2917 96.0801 32.0755 96.5872 32.0755 97.1241C32.0755 97.6536 32.2917 98.1607 32.6721 98.5336C33.0598 98.9064 33.5744 99.1003 34.1039 99.0854H163.116C167.032 99.0929 170.641 101.203 172.557 104.619C174.474 108.034 174.399 112.225 172.356 115.566C171.297 117.274 169.783 118.668 167.993 119.586C166.487 120.361 164.817 120.757 163.124 120.734C163.094 120.734 163.064 120.734 163.042 120.749C161.931 114.828 157.643 110.003 151.893 108.213C146.143 106.424 139.872 107.96 135.606 112.211L135.591 112.218ZM138.604 144.919C138.418 144.971 138.239 145.031 138.067 145.091C137.53 145.277 137.001 145.486 136.479 145.732C135.39 146.179 134.406 146.858 133.608 147.731C133.287 148.066 133.086 148.499 133.056 148.969C133.086 149.431 133.287 149.878 133.608 150.214C134.413 151.072 135.39 151.75 136.479 152.198C143.295 154.875 150.864 154.875 157.673 152.198C158.762 151.75 159.739 151.072 160.552 150.214C160.865 149.871 161.059 149.431 161.096 148.969C161.059 148.506 160.865 148.066 160.552 147.731C159.747 146.866 158.77 146.187 157.673 145.732C157.159 145.493 156.629 145.277 156.085 145.091C155.913 145.024 155.734 144.971 155.541 144.919L148.754 151.698C148.314 152.145 147.71 152.391 147.076 152.391C146.45 152.391 145.846 152.145 145.398 151.698L138.604 144.919ZM147.076 116.462C143.623 116.47 140.662 118.916 139.991 122.302C139.32 125.68 141.14 129.065 144.324 130.385C147.516 131.705 151.192 130.587 153.109 127.716C155.025 124.845 154.645 121.019 152.206 118.58C150.842 117.223 149 116.462 147.076 116.462ZM138.611 115.239C142.653 111.197 148.977 110.579 153.728 113.755C158.478 116.932 160.32 123.018 158.135 128.29C155.943 133.57 150.335 136.567 144.734 135.449C139.126 134.33 135.099 129.416 135.099 123.704C135.092 120.527 136.359 117.477 138.611 115.239ZM39.1383 159.066C33.9106 164.331 33.9106 172.833 39.1383 178.098L48.6614 187.613L58.1771 178.098C63.1884 172.796 63.0691 164.481 57.9086 159.328C52.7556 154.175 44.433 154.063 39.1383 159.066ZM41.644 186.153C41.4874 186.197 41.3382 186.242 41.1891 186.302C40.764 186.451 40.3165 186.622 39.8691 186.831C38.9742 187.212 38.1614 187.771 37.4902 188.487C37.1993 188.748 37.0353 189.121 37.0353 189.508C37.0353 189.904 37.1993 190.276 37.4902 190.538C38.1613 191.253 38.9742 191.813 39.8691 192.193C42.6506 193.349 45.6485 193.916 48.6614 193.856C51.6741 193.916 54.6645 193.349 57.4388 192.193C58.3412 191.82 59.154 191.253 59.8178 190.538C60.1086 190.276 60.2727 189.904 60.2727 189.508C60.2727 189.121 60.1086 188.748 59.8178 188.487C59.154 187.771 58.3412 187.212 57.4388 186.831C56.9914 186.63 56.544 186.451 56.1189 186.302C55.9697 186.242 55.8206 186.197 55.664 186.153L50.0337 191.783H50.0411C49.6757 192.148 49.1761 192.357 48.6541 192.357C48.1321 192.357 47.625 192.148 47.2595 191.783L41.644 186.153ZM44.4181 164.332C42.3897 166.36 42.0764 169.53 43.6649 171.908C45.2533 174.287 48.3034 175.212 50.9507 174.123C53.5906 173.027 55.0971 170.216 54.5377 167.412C53.9859 164.608 51.525 162.579 48.6613 162.579C47.0655 162.572 45.5368 163.206 44.4181 164.332ZM41.6365 161.558C44.9849 158.209 50.2274 157.695 54.1649 160.327C58.1024 162.952 59.6387 168.001 57.8266 172.371C56.0144 176.748 51.361 179.232 46.7225 178.314C42.0766 177.39 38.7282 173.318 38.7282 168.582C38.7282 165.95 39.7723 163.422 41.6365 161.558ZM84.1216 150.274L60.1759 150.282C52.0176 150.282 45.4028 143.667 45.4028 135.509C45.4028 127.35 52.0174 120.736 60.1759 120.736H118.747C119.813 120.773 120.656 121.645 120.656 122.704C120.656 123.771 119.813 124.643 118.747 124.681H60.1759C54.1951 124.681 49.3477 129.528 49.3477 135.509C49.3477 141.49 54.1951 146.337 60.1759 146.337H108.909C117.06 146.337 123.675 152.944 123.675 161.103C123.675 169.253 117.06 175.868 108.909 175.868H70.3685C69.3021 175.831 68.4594 174.959 68.4594 173.9C68.4594 172.833 69.3021 171.961 70.3685 171.923H108.909C114.83 171.841 119.588 167.024 119.588 161.095C119.588 155.174 114.83 150.349 108.909 150.267L84.1216 150.274ZM123.489 76.3793H126.875V65.1112L113.944 45.9612H96.4484V76.3806H99.834C101.415 71.1753 106.218 67.6106 111.661 67.6106C117.105 67.6106 121.908 71.1739 123.489 76.3793ZM117.605 73.9929C114.764 71.1516 110.312 70.7116 106.971 72.9489C103.63 75.1787 102.332 79.4593 103.869 83.173C105.405 86.8868 109.35 88.9973 113.295 88.2142C117.232 87.4311 120.074 83.9708 120.074 79.9514C120.081 77.7142 119.194 75.5739 117.613 73.993L117.605 73.9929ZM77.1782 76.3793H92.5105V35.2365H48.0115V76.3793H53.53C55.1035 71.1665 59.9059 67.6018 65.3499 67.6018C70.8013 67.6018 75.6048 71.1665 77.1782 76.3793Z" fill="#E6001F"/>
</svg>
