<svg width="29" height="35" viewBox="0 0 29 35" fill="none" xmlns="http://www.w3.org/2000/svg">
<path d="M4.42348 8.81796C4.95719 8.40579 5.61242 8.18298 6.28691 8.18298H22.2202C22.8947 8.18298 23.5499 8.40579 24.0836 8.81796L15.0692 16.6657C14.6033 17.0678 13.9147 17.0678 13.4488 16.6657L4.42348 8.81796ZM24.8269 21.4973C25.1429 21.0041 25.31 20.4319 25.31 19.8465V11.2645C25.311 10.6792 25.1429 10.106 24.8269 9.61378L17.9942 15.5555L24.8269 21.4973ZM3.69133 9.61389C3.37535 10.1061 3.20725 10.6793 3.20826 11.2646V19.8466C3.20826 20.432 3.37536 21.0042 3.69133 21.4974L10.5241 15.5557L3.69133 9.61389ZM17.1707 16.2717L15.7803 17.4819L15.7792 17.4809C14.9053 18.2333 13.613 18.2333 12.7389 17.4809L11.3484 16.2707L4.42335 22.3075C4.95706 22.7187 5.61229 22.9425 6.28678 22.9415H22.2201C22.8986 22.9445 23.5579 22.7207 24.0947 22.3075L17.1707 16.2717Z" fill="#E6001F"/>
</svg>
