<svg width="201" height="251" viewBox="0 0 201 251" fill="none" xmlns="http://www.w3.org/2000/svg">
<path fill-rule="evenodd" clip-rule="evenodd" d="M15.8139 167.267L22.0528 174.694L33.9222 169.053L34.3286 167.538L28.102 159.889C27.7114 159.408 27.5743 158.768 27.7355 158.168L28.5533 155.112C28.6943 154.592 29.0444 154.153 29.5236 153.902C33.3422 151.894 35.8027 150.566 36.9304 149.952L38.1913 145.255L35.8795 142.136C35.5288 141.663 35.412 141.055 35.5651 140.485L36.504 136.997C36.6408 136.485 36.9827 136.052 37.4459 135.799L40.8012 133.977L41.1676 132.616L39.1133 130.024C38.735 129.545 38.6019 128.915 38.7629 128.324L39.6774 124.904C39.8949 124.104 40.5954 123.529 41.4211 123.476L43.5478 123.338L45.6707 115.417C45.8156 114.867 46.1978 114.41 46.7174 114.168C47.2334 113.926 47.8289 113.924 48.3446 114.162L52.8957 116.258L53.2706 114.873L48.7477 110.639C48.228 110.151 48.0183 109.416 48.1996 108.727L49.6375 103.369C49.8106 102.567 50.4791 101.948 51.3169 101.857C61.793 100.72 70.6654 93.1155 73.3961 82.9336C77.0652 69.2317 68.9054 55.098 55.2035 51.4268C41.5021 47.7542 27.3689 55.9157 23.6958 69.617C20.9692 79.7985 24.8517 90.8214 33.358 97.0455C34.0466 97.5502 34.3164 98.4399 34.0465 99.2309L15.8139 167.267ZM21.537 179.012C20.9774 179.012 20.4294 178.771 20.0548 178.324L12.2054 168.983C11.8027 168.5 11.6575 167.849 11.8185 167.239L30.0114 99.3485C20.9692 92.0699 16.9415 79.8945 19.9622 68.6165C24.1872 52.8554 40.4425 43.4684 56.2064 47.6916C71.9662 51.9145 81.3546 68.1734 77.1296 83.9342C74.1091 95.2122 64.5313 103.742 53.0608 105.526L52.2352 108.609L56.7585 112.843C57.2777 113.331 57.4871 114.066 57.302 114.755L56.0376 119.474C55.8927 120.024 55.5096 120.482 54.9901 120.724C54.4749 120.966 53.8785 120.969 53.3629 120.73L48.8119 118.633L46.923 125.678C46.7095 126.478 46.0086 127.053 45.1789 127.107L43.0525 127.245L42.7503 128.386L44.8007 130.976C45.1791 131.456 45.3118 132.087 45.1547 132.677L44.3213 135.78C44.1844 136.292 43.8417 136.726 43.3745 136.979L40.0236 138.801L39.5446 140.585L41.8524 143.703C42.2026 144.176 42.3193 144.784 42.1662 145.354L40.4546 151.751C40.3176 152.259 39.9793 152.689 39.5201 152.943C39.4963 152.957 37.027 154.32 32.0691 156.931L31.7269 158.215L37.9497 165.865C38.3403 166.346 38.4769 166.986 38.3159 167.586L37.4259 170.917C37.277 171.464 36.8981 171.919 36.3867 172.163L22.363 178.827C22.0971 178.952 21.8149 179.012 21.537 179.012Z" fill="#E6001F"/>
<path fill-rule="evenodd" clip-rule="evenodd" d="M49.8469 62.527C48.3167 62.527 46.8059 62.9285 45.4447 63.7142C43.3988 64.894 41.9367 66.8002 41.3245 69.0803C40.064 73.7861 42.8671 78.6413 47.5754 79.9022C49.855 80.5133 52.2352 80.1999 54.2811 79.0198C56.3235 77.8395 57.7852 75.9339 58.3973 73.654C59.6583 68.9474 56.8548 64.0929 52.1466 62.8318C51.3855 62.628 50.6161 62.527 49.8469 62.527ZM49.8592 84.0715C48.7717 84.0715 47.6721 83.9314 46.5725 83.6371C43.2981 82.7589 40.5553 80.6572 38.8596 77.7186C37.1641 74.7796 36.7129 71.357 37.5909 68.0794C38.469 64.8015 40.5714 62.0626 43.5115 60.3658C46.4476 58.6692 49.871 58.2186 53.1495 59.0971C59.9161 60.9104 63.9434 67.8892 62.1311 74.6548C60.6125 80.3234 55.4653 84.0716 49.8592 84.0715Z" fill="#E6001F"/>
<path fill-rule="evenodd" clip-rule="evenodd" d="M59.3036 78.4775C58.9977 78.4775 58.6873 78.4044 58.3973 78.2511C48.546 73.0095 42.4199 62.8253 42.4199 51.6731C42.42 35.0839 55.9163 21.5883 72.5059 21.5883C89.096 21.5883 102.592 35.0842 102.592 51.6731C102.592 53.8164 102.362 55.9563 101.915 58.0329C101.694 59.0764 100.663 59.7406 99.6195 59.5159C98.5766 59.2909 97.9117 58.2629 98.1373 57.2194C98.528 55.4091 98.7255 53.5431 98.7255 51.6731C98.7257 37.2158 86.9649 25.4547 72.5059 25.4547C58.0511 25.4546 46.2865 37.2161 46.2865 51.6731C46.2868 61.3924 51.623 70.2688 60.2138 74.8372C61.1563 75.3384 61.5147 76.509 61.0114 77.4519C60.6651 78.1049 59.9962 78.4776 59.3036 78.4775ZM76.0063 81.5423C75.0434 81.5423 74.2097 80.8257 74.0888 79.8467C73.956 78.7874 74.709 77.8216 75.7682 77.6903C79.5181 77.2256 83.0501 75.9823 86.2641 73.9951C87.1747 73.4339 88.3665 73.7155 88.9262 74.6237C89.4865 75.5319 89.2083 76.7232 88.2979 77.2844C84.6048 79.5657 80.549 80.9938 76.2436 81.5274C76.1631 81.5372 76.0824 81.5424 76.0063 81.5423Z" fill="#E6001F"/>
<path fill-rule="evenodd" clip-rule="evenodd" d="M165.958 179.011H87.2839C86.2163 179.011 85.3503 178.146 85.3503 177.078L85.3505 111.944C85.3505 110.876 86.2162 110.01 87.2834 110.01C88.3509 110.01 89.2168 110.876 89.2168 111.944V175.145H164.025V111.944C164.025 110.876 164.891 110.01 165.958 110.01C167.026 110.01 167.891 110.876 167.891 111.944L167.892 177.078C167.892 178.145 167.025 179.012 165.958 179.011Z" fill="#E6001F"/>
<path fill-rule="evenodd" clip-rule="evenodd" d="M126.621 70.6719C127.132 70.6719 127.624 70.8757 127.986 71.2382L179.427 122.675L184.179 117.92L126.621 60.3612L69.0628 117.92L73.8155 122.675L125.256 71.2378C125.618 70.8754 126.109 70.6722 126.621 70.6719ZM179.427 127.342C178.931 127.342 178.436 127.154 178.057 126.776L126.621 75.3393L75.1846 126.776C74.4276 127.531 73.2031 127.531 72.4499 126.776L64.9628 119.287C64.2056 118.532 64.2055 117.308 64.9628 116.553L125.256 56.2597C125.618 55.8972 126.109 55.6937 126.621 55.6937C127.132 55.6937 127.624 55.8976 127.986 56.26L188.279 116.553C188.642 116.915 188.847 117.407 188.847 117.92C188.847 118.432 188.642 118.925 188.279 119.287L180.792 126.776C180.413 127.154 179.918 127.342 179.427 127.342Z" fill="#E6001F"/>
<path fill-rule="evenodd" clip-rule="evenodd" d="M100.901 85.2822C99.833 85.2822 98.9671 84.4166 98.9671 83.3487L98.9672 66.7055C98.9672 65.6376 99.833 64.7725 100.9 64.7725C101.968 64.7722 102.834 65.6379 102.834 66.7056L102.834 83.3484C102.834 84.4164 101.968 85.2825 100.901 85.2822ZM87.2835 98.8989C86.2159 98.8989 85.3499 98.0337 85.3499 96.9661L85.3501 66.7055C85.3501 65.6376 86.2158 64.7725 87.283 64.7725C88.3505 64.7722 89.2164 65.6379 89.2164 66.7056V96.9659C89.2164 98.0335 88.3504 98.8992 87.2835 98.8989Z" fill="#E6001F"/>
<path fill-rule="evenodd" clip-rule="evenodd" d="M84.6772 64.7717H103.506V59.5605H84.6772V64.7717ZM105.44 68.6383H82.7443C81.6767 68.6383 80.8108 67.7728 80.8108 66.7055L80.8109 57.627C80.8109 56.5595 81.6766 55.6937 82.744 55.6937H105.44C106.507 55.6937 107.373 56.5596 107.373 57.6273V66.7054C107.373 67.7725 106.507 68.6388 105.44 68.6383Z" fill="#E6001F"/>
<path fill-rule="evenodd" clip-rule="evenodd" d="M139.71 179.011C138.643 179.011 137.777 178.146 137.777 177.079L137.777 139.674H115.464V177.078C115.464 178.146 114.598 179.012 113.531 179.012C112.463 179.012 111.597 178.146 111.597 177.079L111.598 137.741C111.598 136.673 112.463 135.808 113.531 135.808L139.71 135.808C140.777 135.808 141.643 136.673 141.643 137.741L141.643 177.078C141.643 178.146 140.777 179.012 139.71 179.011Z" fill="#E6001F"/>
<path fill-rule="evenodd" clip-rule="evenodd" d="M115.464 121.435H137.777V110.928H115.464V121.435ZM139.71 125.301H113.531C112.464 125.301 111.598 124.436 111.598 123.368L111.598 108.994C111.598 107.927 112.463 107.061 113.531 107.061L139.71 107.061C140.778 107.061 141.643 107.927 141.643 108.995L141.644 123.368C141.644 124.436 140.777 125.302 139.71 125.301Z" fill="#E6001F"/>
</svg>
