<svg width="25" height="25" viewBox="0 0 25 25" fill="none" xmlns="http://www.w3.org/2000/svg">
<path fill-rule="evenodd" clip-rule="evenodd" d="M7.06805 3.45917H16.6597C16.8897 3.45917 17.0764 3.64583 17.0764 3.87583V6.00056C17.0764 6.23056 16.8897 6.41722 16.6597 6.41722H7.06805C6.83777 6.41722 6.65139 6.23056 6.65139 6.00056V3.87583C6.65139 3.64583 6.83777 3.45917 7.06805 3.45917ZM16.243 4.2925H7.48472V5.58389H16.243V4.2925ZM5.33083 18.2644C5.56305 18.2644 5.75222 18.4475 5.75222 18.6814C5.75222 18.9153 5.56305 19.0983 5.33083 19.0983C5.09861 19.0983 4.90944 18.9153 4.90944 18.6814C4.90944 18.4475 5.09861 18.2644 5.33083 18.2644ZM6.50666 18.2647H12.7675V19.0981H6.50666V18.2647ZM5.33083 8.75333C5.56305 8.75333 5.75222 8.93639 5.75222 9.17028C5.75222 9.40417 5.56305 9.58722 5.33083 9.58722C5.09861 9.58722 4.90944 9.40417 4.90944 9.17028C4.90944 8.93639 5.09861 8.75333 5.33083 8.75333ZM6.50666 8.75389H16.4575V9.58722H6.50666V8.75389ZM5.33083 15.0942C5.56305 15.0942 5.75222 15.2772 5.75222 15.5111C5.75222 15.745 5.56305 15.9281 5.33083 15.9281C5.09861 15.9281 4.90944 15.745 4.90944 15.5111C4.90944 15.2772 5.09861 15.0942 5.33083 15.0942ZM6.50666 15.0944H12.7675V15.9278H6.50666V15.0944ZM5.33083 11.9236C5.56305 11.9236 5.75222 12.1067 5.75222 12.3406C5.75222 12.5744 5.56305 12.7575 5.33083 12.7575C5.09861 12.7575 4.90944 12.5742 4.90944 12.3406C4.90944 12.1069 5.09861 11.9236 5.33083 11.9236ZM6.50666 11.9242H12.7675V12.7575H6.50666V11.9242ZM20.4442 18.8922C19.9853 18.8617 19.6597 18.7736 19.3214 18.5456C18.8486 18.2269 18.5442 17.7725 18.103 17.0764L17.8128 17.5792C17.7719 17.6497 17.7139 17.7033 17.6467 17.7386L14.7067 19.2844C14.4264 19.4319 14.0955 19.2239 14.0972 18.9144L13.9667 15.6144C13.9636 15.5328 13.9842 15.4558 14.0222 15.39L14.8414 13.9708L14.7569 13.9219C14.1533 13.5733 13.9664 13.0006 14.0533 12.4564C14.0853 12.2569 14.1558 12.0619 14.2578 11.8856C14.36 11.7083 14.4933 11.5492 14.6497 11.4225C15.0764 11.0767 15.6639 10.9539 16.2694 11.3036L16.3539 11.3522L18.5325 7.58C18.9961 6.77694 19.7253 6.47806 20.4444 6.52556V2.87139H17.7011C17.4711 2.87139 17.2844 2.685 17.2844 2.45472V0H3.28389V22.5581H20.4442V18.8922ZM18.1172 0.523889L19.7836 2.03806H18.1172V0.523889ZM18.8142 8.75417L19.2517 7.99667C19.5592 7.46389 20.0528 7.29583 20.5183 7.36806C20.7075 7.3975 20.9033 7.47 21.068 7.565C21.2397 7.66417 21.3928 7.79306 21.5142 7.94361C21.8092 8.31056 21.9105 8.82111 21.6036 9.35278L21.1655 10.1114L18.8142 8.75417ZM14.8264 16.3339C15.4153 16.6739 16.0039 17.0136 16.5928 17.3533L14.9019 18.2422L14.8264 16.3339ZM20.5147 11.2378C19.7311 10.7853 18.9475 10.3331 18.1636 9.88056L18.3992 9.47278L20.7503 10.8297L20.5147 11.2378ZM18.6083 12.6547L19.2836 11.485L20.0997 11.9564L19.4242 13.1264L18.6083 12.6547ZM17.0736 11.7681L17.7489 10.5989L18.5636 11.0694L17.8883 12.2392L17.0733 11.7683L17.0736 11.7681ZM16.3767 14.8575L15.7647 15.9172L14.9492 15.4464L15.5614 14.3864L16.3767 14.8575ZM17.5992 16.2861L17.3003 16.8036L16.4847 16.3328L17.0117 15.42C17.2355 15.7367 17.4286 16.0244 17.5992 16.2861ZM20.6008 13.8061L20.1442 13.5417L21.4497 11.2808C21.9278 11.6639 22.3089 12.1556 22.793 12.7803C23.2144 13.3236 23.7092 13.9619 24.4014 14.7125C24.4258 14.7417 24.4544 14.7678 24.4875 14.7903L24.9997 15.1358L23.1097 18.4094L22.7078 18.1358C22.6411 18.0903 22.5605 18.0636 22.4739 18.0636C22.1239 18.0633 21.8228 18.0675 21.5575 18.0708L20.8605 18.0736C20.5075 18.0736 20.0892 18.0586 19.7864 17.8547C19.4225 17.6094 19.1461 17.1722 18.7114 16.4836L17.3936 14.5275C17.3603 14.4806 17.3164 14.4397 17.2633 14.4089C16.5667 14.0064 15.87 13.6039 15.1733 13.2014C14.9169 13.0533 14.8369 12.8128 14.8736 12.5856C14.8894 12.4858 14.9253 12.3875 14.9769 12.2981C15.028 12.2094 15.095 12.13 15.1736 12.0661C15.35 11.9231 15.5958 11.8736 15.8525 12.0219L20.1839 14.5247L20.6005 13.8053L20.6008 13.8061ZM2.31305 2.2825H0V25H17.1603V23.3914H2.72972C2.49972 23.3914 2.31305 23.205 2.31305 22.9747V2.2825Z" fill="#E6001F"/>
</svg>
